<svg data-name="Layer 1" xmlns="http://www.w3.org/2000/svg" width="790.523" height="730.492" viewBox="0 0 790.523 730.492"><path d="M47.913 58.34A47.968 47.968 0 000 106.253v551.99a47.968 47.968 0 0047.913 47.913h404.925a47.968 47.968 0 0047.913-47.913v-551.99a47.968 47.968 0 00-47.913-47.913z" fill="#3f3d56"/><path fill="#fff" d="M24.916 92.371h450.919v579.753H24.916z"/><path fill="#6c63ff" d="M83.864 196.289h333.024v21.877H83.864zm0 58.34h333.024v21.877H83.864zm0 58.34h333.024v21.877H83.864zm0 58.34h333.024v21.877H83.864zm0 58.34h333.024v21.877H83.864zm0 58.34h333.024v21.877H83.864zm0 58.34h333.024v21.877H83.864z"/><path fill="#e6e6e6" d="M91.351 116.042L421.575 55.61l77.698 424.573-330.224 60.432z"/><path fill="#6c63ff" d="M148.448 184.246l243.884-44.632 2.932 16.022-243.884 44.632zm7.819 42.724l243.884-44.632 2.932 16.022L159.2 242.992zm7.817 42.724l243.885-44.632 2.932 16.022-243.884 44.632zm7.82 42.725l243.884-44.632 2.932 16.022-243.884 44.632zm7.816 42.723l243.883-44.63 2.932 16.021-243.883 44.631zm7.82 42.726l243.885-44.632 2.932 16.022-243.884 44.632zm7.82 42.724l243.884-44.632 2.932 16.022-243.884 44.632z"/><path fill="#e6e6e6" d="M561.874 537.161l93.438-17.1 21.985 120.136-93.438 17.1z"/><path fill="#fff" d="M578.03 556.46l69.008-12.629.83 4.534-69.009 12.629zm2.213 12.089l69.008-12.629.83 4.534-69.009 12.628zm2.212 12.089l69.008-12.629.83 4.534-69.009 12.629zm2.212 12.089l69.008-12.629.83 4.534-69.009 12.629zm2.213 12.089l69.008-12.629.83 4.534-69.009 12.628zm2.212 12.089l69.008-12.629.83 4.534-69.009 12.629zm2.212 12.089l69.008-12.629.83 4.534-69.009 12.629z"/><path d="M333.866 30.385H294.13v-8.134A22.25 22.25 0 00271.88 0h-43.01a22.25 22.25 0 00-22.25 22.25v8.135h-39.736a22.25 22.25 0 00-22.25 22.251v61.613h211.481V52.636a22.25 22.25 0 00-22.25-22.25zm-97.754 599.58c6.57-4.496 13.322-9.172 21.123-11.216 7.119-1.865 15.292-1.371 20.922 3.84 4.544 4.207 6.462 10.672 3.096 16.205a10.298 10.298 0 01-6.823 4.964 8.219 8.219 0 01-7.388-2.886c-1.766-1.95-2.822-4.833-1.884-7.404.987-2.704 3.625-4.357 6.216-5.28a46.004 46.004 0 019.27-1.915l12.893-1.765 52.769-7.224 58.765-8.045a1.836 1.836 0 001.273-2.242 1.87 1.87 0 00-2.242-1.273L287.17 621.73c-4.23.579-8.519.994-12.704 1.844a21.363 21.363 0 00-9.122 3.79c-5.602 4.434-5.202 12.278-.047 16.917 5.218 4.697 12.784 3.888 17.363-1.3a15.743 15.743 0 001.194-19.29c-4.999-7.537-14.107-10.433-22.81-9.364-10.066 1.236-18.599 6.894-26.774 12.488-1.924 1.318-.103 4.479 1.84 3.149z" fill="#3f3d56"/><path d="M646.406 494.837l1.216 12.154s-7.293 26.739 8.508 26.739 3.646-26.74 3.646-26.74l1.215-9.723zm110.396-40.493l-5.577 10.867s-20.64 18.498-7.37 27.075 17.578-20.477 17.578-20.477l6.298-7.507z" fill="#a0616a"/><path d="M665.853 505.775l17.016 115.465 8.508 82.648s7.292 18.231 31.6 2.43l-3.646-47.4-2.43-42.54s-2.432-41.324-4.862-48.617 1.215-31.6 1.215-31.6l9.723-40.11z" fill="#2f2e41"/><path d="M693.807 701.457l-9.723 10.939s-14.585-4.862-18.231 4.861 27.954 12.154 27.954 12.154 32.817 2.431 32.817 0-.88-21.021-5.302-22.057-27.515-5.897-27.515-5.897zm18.232-201.759l17.015 121.542 8.508 82.648s7.293 18.231 31.601 2.43l-3.646-47.4-2.431-42.54s-2.43-41.324-4.862-48.617 1.216-31.6 1.216-31.6l-2.431-44.97z" fill="#2f2e41"/><path d="M739.993 701.457l-9.723 10.939s-14.585-4.862-18.231 4.861 27.954 12.154 27.954 12.154 32.816 2.431 32.816 0-.879-21.021-5.301-22.057-27.515-5.897-27.515-5.897z" fill="#2f2e41"/><circle cx="675.576" cy="282.139" r="25.524" fill="#a0616a"/><path fill="#a0616a" d="M694.415 293.685l10.939 18.232-27.955 12.154-3.646-21.878 20.662-8.508z"/><path d="M708.392 310.094s-25.523-2.431-35.247 13.37l-23.99 18.231a13.829 13.829 0 00-5.341 12.825l20.823 157.332 30.386-1.215 49.832-9.723 14.585-3.647-7.293-64.417s-8.508-25.523 1.216-42.54l-4.862-59.554-34.032-13.37z" fill="#575a89"/><path d="M651.268 346.556l-1.823-3.039s-2.431 0-2.431 4.862-4.254 109.995-4.254 109.995l-1.215 40.109 23.092 2.43 8.508-75.355-3.646-49.832zm80.217-18.231l17.016 2.43a112.95 112.95 0 0117.016 23.093c7.292 13.37 29.17 38.894 24.308 58.34s-19.447 54.694-19.447 54.694l-23.092-9.723s18.23-42.54 17.015-46.186-15.8-25.524-15.8-25.524z" fill="#575a89"/><path d="M657.953 268.162s-20.662-1.216-7.293-14.585c0 0 10.939-4.862 15.8-2.431 0 0 7.293-4.862 7.293-2.43 0 0 25.524-7.293 29.17 18.23s-2.43 37.678-2.43 37.678l-17.017-1.215s3.647-20.662-9.723-18.231c0 0-10.939 3.646-12.154 0s-3.646-17.016-3.646-17.016z" fill="#2f2e41"/><path opacity=".2" d="M667.676 499.09l10.939-72.924-7.293-44.971 2.431 48.914-7.292 68.981h1.215z"/></svg>